<svg xmlns="http://www.w3.org/2000/svg" version="1.1" xmlns:xlink="http://www.w3.org/1999/xlink" width="512" height="512" x="0" y="0" viewBox="0 0 32 32" style="enable-background:new 0 0 512 512" xml:space="preserve" class=""><g><path d="M20.459 6.17 25 8.44l4.541-2.27c-.032-.02-.059-.047-.094-.065l-4-2a1.001 1.001 0 0 0-.894 0l-4 2c-.035.018-.062.044-.094.065zM20 12a1 1 0 0 0 .553.895L24.5 15V9.31L20 7.06zM25.5 9.31V15l3.947-2.105A1 1 0 0 0 30 12V7.06zM29.447 19.105l-4-2a1.001 1.001 0 0 0-.894 0l-4 2c-.035.018-.062.044-.094.065L25 21.44l4.541-2.27c-.032-.02-.059-.047-.094-.065zM20 25a1 1 0 0 0 .553.895L24.5 28v-5.69L20 20.06zM25.5 28l3.947-2.105A1 1 0 0 0 30 25v-4.94l-4.5 2.25z" fill="#00fff5" opacity="1" data-original="#000000" class=""></path><path d="M19 25v-5c0-.762.423-1.447 1.104-1.788L22 17.264v-2.528l-1.895-.947A1.99 1.99 0 0 1 19 12V7c0-.762.423-1.447 1.104-1.788L22 4.264V3a1 1 0 0 0-1-1H3a1 1 0 0 0-1 1v26a1 1 0 0 0 1 1h18a1 1 0 0 0 1-1v-1.264l-1.895-.947A1.99 1.99 0 0 1 19 25zM7.854 22.854l-2 2a.498.498 0 0 1-.708 0l-1-1a.5.5 0 1 1 .708-.708l.646.647 1.646-1.647a.5.5 0 1 1 .708.708zm0-5-2 2a.498.498 0 0 1-.708 0l-1-1a.5.5 0 1 1 .708-.708l.646.647 1.646-1.647a.5.5 0 1 1 .708.708zm0-5-2 2a.498.498 0 0 1-.708 0l-1-1a.5.5 0 1 1 .708-.708l.646.647 1.646-1.647a.5.5 0 1 1 .708.708zm0-5-2 2a.498.498 0 0 1-.708 0l-1-1a.5.5 0 1 1 .708-.708l.646.647 1.646-1.647a.5.5 0 1 1 .708.708zM17.5 25h-8a.5.5 0 1 1 0-1h8a.5.5 0 1 1 0 1zm0-5h-8a.5.5 0 1 1 0-1h8a.5.5 0 1 1 0 1zm0-5h-8a.5.5 0 1 1 0-1h8a.5.5 0 1 1 0 1zm0-5h-8a.5.5 0 1 1 0-1h8a.5.5 0 1 1 0 1z" fill="#00fff5" opacity="1" data-original="#000000" class=""></path></g></svg>