<svg xmlns="http://www.w3.org/2000/svg" version="1.1" xmlns:xlink="http://www.w3.org/1999/xlink" width="512" height="512" x="0" y="0" viewBox="0 0 32 32" style="enable-background:new 0 0 512 512" xml:space="preserve" class=""><g><path d="m11.833 22.054-9.603 6.86A1.984 1.984 0 0 1 2 28V15.56zM16.145 21.025l12.432 8.88A1.97 1.97 0 0 1 28 30H4a1.97 1.97 0 0 1-.577-.095l12.432-8.88a.25.25 0 0 1 .29 0z" fill="#00fff5" opacity="1" data-original="#000000" class=""></path><path d="M28.933 14.467 18.858 21.12l-1.831-1.308A1.73 1.73 0 0 0 16 19.478c-.369 0-.722.114-1.018.326l-1.842 1.315-10.073-6.652 5.706-2.853.775 3.876a2.502 2.502 0 0 0 2.942 1.962 2.501 2.501 0 0 0 1.96-2.941l-.586-2.93c2.251.182 3.943.701 4.898 1.518 1.066.913 2.724.172 2.735-1.241.043.029.08.064.126.091l2.163 1.249c.714.414 1.615.426 2.392-.107zM23.75 6.25h2.5a.75.75 0 0 1 0 1.5h-2.5a.75.75 0 0 1 0-1.5zM22.101 4.375a.75.75 0 0 1 .274-1.024l2.165-1.25a.75.75 0 0 1 .75 1.298l-2.165 1.25a.75.75 0 0 1-1.024-.274zM22.101 9.625a.75.75 0 0 1 1.024-.274l2.165 1.25a.75.75 0 1 1-.75 1.298l-2.165-1.25a.749.749 0 0 1-.274-1.024z" fill="#00fff5" opacity="1" data-original="#000000" class=""></path><path d="m12.321 11.508.659 3.296a1 1 0 0 1-1.961.393l-.739-3.696c1.11.003.93-.007 2.041.007zM19.738 11.958c-1.616-1.385-4.246-1.797-6.238-1.912V3.955c1.992-.116 4.623-.528 6.238-1.913.105-.089.262-.023.262.116v9.686c0 .138-.157.204-.262.114zM7 7.001a3 3 0 0 1 3-3h2v6h-2a3 3 0 0 1-3-3zM30 15.56V28c0 .331-.088.639-.23.914l-9.603-6.859z" fill="#00fff5" opacity="1" data-original="#000000" class=""></path></g></svg>