<svg xmlns="http://www.w3.org/2000/svg" version="1.1" xmlns:xlink="http://www.w3.org/1999/xlink" width="512" height="70" x="0" y="0" viewBox="0 0 512 512" style="enable-background:new 0 0 512 512" xml:space="preserve" class=""><g><path fill-rule="evenodd" d="M274.177 190.328a72.712 72.712 0 0 1 19.085 7.914l23.89-17.297 19.116 19.116-17.297 23.89a72.724 72.724 0 0 1 7.913 19.085l29.115 4.66v27.034l-29.114 4.66a72.719 72.719 0 0 1-7.914 19.086l17.297 23.89-19.116 19.116-23.89-17.297a72.758 72.758 0 0 1-19.085 7.913l-4.66 29.115h-27.034l-4.66-29.114a72.68 72.68 0 0 1-19.085-7.915l-23.89 17.297-19.116-19.116 17.297-23.89a72.724 72.724 0 0 1-7.913-19.085L156 274.731v-27.034l29.116-4.661a72.724 72.724 0 0 1 7.913-19.085l-17.297-23.89 19.116-19.116 23.889 17.296a72.719 72.719 0 0 1 19.086-7.914l4.66-29.114h27.034zm-18.178 30.942c-22.061 0-39.944 17.884-39.944 39.944 0 22.061 17.884 39.944 39.944 39.944s39.944-17.884 39.944-39.944c.001-22.06-17.883-39.944-39.944-39.944zM83 91.757c-34.863 0-64.36 22.986-74.158 54.63-1.722 5.56-.786 11.091 2.667 15.776s8.46 7.214 14.28 7.214h114.422c5.82 0 10.827-2.53 14.28-7.214s4.389-10.216 2.667-15.776c-9.798-31.644-39.294-54.63-74.158-54.63zm.001-88.971c21.674 0 39.244 17.57 39.244 39.244s-17.571 39.244-39.244 39.244c-21.674 0-39.244-17.57-39.244-39.244-.001-21.674 17.57-39.244 39.244-39.244zM429 91.757c-34.863 0-64.36 22.986-74.158 54.63-1.722 5.56-.786 11.091 2.667 15.776s8.46 7.214 14.28 7.214h114.422c5.82 0 10.827-2.53 14.28-7.214s4.389-10.216 2.667-15.776c-9.798-31.644-39.294-54.63-74.158-54.63zm0-88.971c21.674 0 39.244 17.57 39.244 39.244S450.673 81.274 429 81.274c-21.674 0-39.244-17.57-39.244-39.244S407.326 2.786 429 2.786zM83 431.595c34.864 0 64.36 22.986 74.158 54.63 1.722 5.559.786 11.091-2.667 15.776-3.453 4.684-8.46 7.214-14.28 7.214H25.789c-5.82 0-10.827-2.53-14.28-7.214-3.453-4.685-4.389-10.216-2.667-15.776 9.798-31.644 39.295-54.63 74.158-54.63zm.001-88.971c21.674 0 39.244 17.57 39.244 39.244s-17.571 39.244-39.244 39.244c-21.674 0-39.244-17.57-39.244-39.244-.001-21.674 17.57-39.244 39.244-39.244zM429 431.595c34.864 0 64.36 22.986 74.159 54.63 1.722 5.559.786 11.091-2.667 15.776-3.453 4.684-8.46 7.214-14.28 7.214H371.789c-5.82 0-10.827-2.53-14.28-7.214-3.453-4.685-4.389-10.216-2.667-15.776 9.798-31.644 39.294-54.63 74.158-54.63zm0-88.971c21.674 0 39.244 17.57 39.244 39.244S450.673 421.112 429 421.112c-21.674 0-39.244-17.57-39.244-39.244s17.57-39.244 39.244-39.244zM278.357 57.068a7.97 7.97 0 0 1 10.125-12.313l42.29 34.721a7.97 7.97 0 0 1-.105 12.399l-42.184 34.635a7.97 7.97 0 0 1-10.125-12.313l25.048-20.565h-99.683a8 8 0 0 1 0-16h99.683zm181.789 216.503a7.97 7.97 0 0 1 12.313 10.125l-34.721 42.29a7.97 7.97 0 0 1-12.399-.105l-34.635-42.184a7.97 7.97 0 0 1 12.313-10.125l20.565 25.048v-99.683a8 8 0 0 1 16 0v99.683zM233.643 465.36a7.97 7.97 0 0 1-10.125 12.313l-42.29-34.721a7.97 7.97 0 0 1 .105-12.399l42.184-34.635a7.97 7.97 0 0 1 10.125 12.313l-25.048 20.565h99.683a8 8 0 0 1 0 16h-99.683zM88.419 323.493a8 8 0 0 1-16 0V223.81l-20.565 25.048a7.97 7.97 0 0 1-12.313-10.125l34.721-42.29a7.97 7.97 0 0 1 12.399.105l34.635 42.184a7.97 7.97 0 0 1-12.313 10.125L88.419 223.81z" clip-rule="evenodd" fill="#00fff5" opacity="1" data-original="#000000" class=""></path></g></svg>