<svg xmlns="http://www.w3.org/2000/svg" version="1.1" xmlns:xlink="http://www.w3.org/1999/xlink" width="512" height="70" x="0" y="0" viewBox="0 0 48 48" style="enable-background:new 0 0 512 512" xml:space="preserve" class=""><g><path d="M43 36H5a3 3 0 0 0 0 6h38a3 3 0 0 0 0-6zM24 13A19 19 0 0 0 5 32v2a1 1 0 0 0 1 1h36a1 1 0 0 0 1-1v-2a19 19 0 0 0-19-19z" fill="#00fff5" opacity="1" data-original="#000000" class=""></path><path d="M27 6h-6a3 3 0 0 0 0 6v2a1 1 0 0 0 1 1h4a1 1 0 0 0 1-1v-2a3 3 0 0 0 0-6z" fill="#00fff5" opacity="1" data-original="#000000" class=""></path></g></svg>